<svg id="Layer_1" height="512" viewBox="0 0 512 512" width="512" xmlns="http://www.w3.org/2000/svg" data-name="Layer 1"><path d="m356.817 423.333a62.072 62.072 0 0 1 -25.668-33.705 52.494 52.494 0 0 1 4.774-41.721l43.693-60.707-9.986-13.914-53.707 74.626a52.494 52.494 0 0 0 -4.774 41.721 62.072 62.072 0 0 0 25.668 33.705 60.413 60.413 0 0 0 42.82 8.827 60.648 60.648 0 0 1 -22.82-8.832z" fill="#d4e1f4"/><path d="m368.088 133.357-64.072-51.194a17.244 17.244 0 0 0 -7.016-3.626v-39.037c0-3.313-2.667-5.5-5.981-5.5h-136.765c-3.313 0-6.254 2.187-6.254 5.5v39.037a26.358 26.358 0 0 0 -6.809 3.626l-63.706 51.194a20.343 20.343 0 0 0 -7.485 16.17v308.265c0 11.418 8.843 21.208 20.262 21.208h264.75c11.418 0 20.988-9.79 20.988-21.208v-18.792a6 6 0 0 0 -12 0v18.792a9.4 9.4 0 0 1 -8.988 9.208h-264.75c-4.8 0-8.262-4.406-8.262-9.208v-23.792h251.571a6 6 0 0 0 0-12h-251.571v-272.473a8.463 8.463 0 0 1 3.045-6.8l63.881-51.007a8.261 8.261 0 0 1 5.328-1.72h136.765a8.568 8.568 0 0 1 5.44 1.721l64.133 51.1a8.617 8.617 0 0 1 3.408 6.7v113.479a6 6 0 0 0 12 0v-113.473a20.74 20.74 0 0 0 -7.912-16.17zm-83.088-87.357v32h-125v-32z" fill="#0635c9"/><path d="m223 397.6a6 6 0 0 0 6-6v-45.6h11.035a42.905 42.905 0 0 0 42.965-42.826v-17.4a5.826 5.826 0 0 0 -6.015-5.774h-17.4a42.679 42.679 0 0 0 -15.016 2.6 59.985 59.985 0 0 0 -17.692-43.915 6 6 0 0 0 -8.485-.028 60.074 60.074 0 0 0 -17.692 43.96 42.692 42.692 0 0 0 -15.014-2.617h-17.4c-3.313 0-6.288 2.463-6.288 5.776v17.4c.002 23.681 19.558 42.824 43.241 42.824h11.761v45.6a6 6 0 0 0 6 6zm48-105.6v11.174a30.892 30.892 0 0 1 -30.965 30.826h-11.035v-11.272a30.487 30.487 0 0 1 30.587-30.728zm-48.363-40.05a47.909 47.909 0 0 1 9.125 38.1 43.256 43.256 0 0 0 -9.125 10.82 43.26 43.26 0 0 0 -9.126-10.82 47.91 47.91 0 0 1 9.126-38.1zm-48.637 51.224v-11.174h11.686c17.066 0 31.314 13.661 31.314 30.728v11.272h-11.761c-17.067 0-31.239-13.76-31.239-30.826z" fill="#0635c9"/><g fill="#1ae5be"><path d="m433.268 341.368-58.757-81.868a6 6 0 0 0 -4.87-2.5 6 6 0 0 0 -4.87 2.5l-58.761 81.638c-.112.156-.217.317-.313.483a64.375 64.375 0 0 0 -6.041 51.46 73.1 73.1 0 0 0 133.592 14.811c12.084-21.087 12.2-45.783.322-66.059q-.141-.24-.302-.465zm-10.432 60.558a61.582 61.582 0 0 1 -53.199 31.074 60.55 60.55 0 0 1 -32.82-9.667 62.072 62.072 0 0 1 -25.668-33.705 52.494 52.494 0 0 1 4.774-41.721l53.707-74.626 53.723 74.853c9.688 16.716 9.504 36.305-.517 53.792z"/><path d="m404.846 366.972a6 6 0 0 0 -6 6 29.6 29.6 0 0 1 -29.658 29.467 6 6 0 0 0 0 12 41.61 41.61 0 0 0 41.658-41.467 6 6 0 0 0 -6-6z"/></g></svg>